<svg xmlns="http://www.w3.org/2000/svg" xmlns:xlink="http://www.w3.org/1999/xlink" width="500" zoomAndPan="magnify" viewBox="0 0 375 374.999991" height="500" preserveAspectRatio="xMidYMid meet" version="1.0"><defs><g/><clipPath id="dd68841225"><path d="M 3.359375 56.964844 L 253.808594 56.964844 L 253.808594 318.050781 L 3.359375 318.050781 Z M 3.359375 56.964844 " clip-rule="nonzero"/></clipPath><clipPath id="be249d88b9"><path d="M 237.664062 163.582031 L 371.722656 163.582031 L 371.722656 209.285156 L 237.664062 209.285156 Z M 237.664062 163.582031 " clip-rule="nonzero"/></clipPath><clipPath id="5dd7429fd3"><path d="M 258.664062 163.582031 L 350.722656 163.582031 C 362.320312 163.582031 371.722656 172.984375 371.722656 184.582031 L 371.722656 188.285156 C 371.722656 199.882812 362.320312 209.285156 350.722656 209.285156 L 258.664062 209.285156 C 247.066406 209.285156 237.664062 199.882812 237.664062 188.285156 L 237.664062 184.582031 C 237.664062 172.984375 247.066406 163.582031 258.664062 163.582031 Z M 258.664062 163.582031 " clip-rule="nonzero"/></clipPath><clipPath id="c4ede549aa"><path d="M 237.675781 163.582031 L 371.609375 163.582031 L 371.609375 209.371094 L 237.675781 209.371094 Z M 237.675781 163.582031 " clip-rule="nonzero"/></clipPath><clipPath id="14c918ebbc"><path d="M 258.671875 163.582031 L 350.703125 163.582031 C 362.296875 163.582031 371.699219 172.984375 371.699219 184.578125 L 371.699219 188.277344 C 371.699219 199.875 362.296875 209.273438 350.703125 209.273438 L 258.671875 209.273438 C 247.074219 209.273438 237.675781 199.875 237.675781 188.277344 L 237.675781 184.578125 C 237.675781 172.984375 247.074219 163.582031 258.671875 163.582031 Z M 258.671875 163.582031 " clip-rule="nonzero"/></clipPath><clipPath id="2d9658334a"><path d="M 133.75 171.738281 L 212.832031 171.738281 L 212.832031 201.128906 L 133.75 201.128906 Z M 133.75 171.738281 " clip-rule="nonzero"/></clipPath><clipPath id="57f2a7698a"><path d="M 148.445312 171.738281 L 198.136719 171.738281 C 202.035156 171.738281 205.773438 173.289062 208.527344 176.042969 C 211.285156 178.800781 212.832031 182.535156 212.832031 186.433594 C 212.832031 190.332031 211.285156 194.070312 208.527344 196.824219 C 205.773438 199.582031 202.035156 201.128906 198.136719 201.128906 L 148.445312 201.128906 C 144.550781 201.128906 140.8125 199.582031 138.054688 196.824219 C 135.300781 194.070312 133.75 190.332031 133.75 186.433594 C 133.75 182.535156 135.300781 178.800781 138.054688 176.042969 C 140.8125 173.289062 144.550781 171.738281 148.445312 171.738281 Z M 148.445312 171.738281 " clip-rule="nonzero"/></clipPath><clipPath id="7b044d9795"><path d="M 133.75 171.738281 L 212.828125 171.738281 L 212.828125 200.789062 L 133.75 200.789062 Z M 133.75 171.738281 " clip-rule="nonzero"/></clipPath><clipPath id="636e81bbf7"><path d="M 148.445312 171.738281 L 198.132812 171.738281 C 202.03125 171.738281 205.769531 173.289062 208.523438 176.042969 C 211.277344 178.800781 212.828125 182.535156 212.828125 186.433594 C 212.828125 190.332031 211.277344 194.066406 208.523438 196.824219 C 205.769531 199.578125 202.03125 201.128906 198.132812 201.128906 L 148.445312 201.128906 C 144.546875 201.128906 140.8125 199.578125 138.054688 196.824219 C 135.300781 194.066406 133.75 190.332031 133.75 186.433594 C 133.75 182.535156 135.300781 178.800781 138.054688 176.042969 C 140.8125 173.289062 144.546875 171.738281 148.445312 171.738281 Z M 148.445312 171.738281 " clip-rule="nonzero"/></clipPath><clipPath id="07d14bbc96"><path d="M 251.226562 201.128906 L 286 201.128906 L 286 241 L 251.226562 241 Z M 251.226562 201.128906 " clip-rule="nonzero"/></clipPath></defs><g clip-path="url(#dd68841225)"><path fill="#000000" d="M 225.664062 222.164062 L 156.367188 222.164062 L 146.800781 152.867188 L 216.085938 152.867188 C 225.636719 152.867188 232.171875 144.28125 230.734375 133.683594 L 222.789062 76.160156 C 222.089844 71.070312 219.585938 66.1875 215.835938 62.589844 C 212.089844 59.011719 207.378906 56.964844 202.8125 56.964844 L 53.949219 56.964844 C 38.269531 56.964844 24.421875 63.769531 14.949219 76.117188 C 5.535156 88.417969 1.640625 104.785156 4.0625 122.171875 L 22.039062 252.851562 C 24.464844 270.25 32.851562 286.609375 45.617188 298.898438 C 58.445312 311.242188 74.207031 318.050781 89.972656 318.050781 L 238.9375 318.050781 C 243.546875 318.050781 247.65625 316.035156 250.414062 312.429688 C 253.175781 308.855469 254.292969 303.972656 253.613281 298.875 L 245.632812 241.324219 C 244.132812 230.746094 235.214844 222.164062 225.664062 222.164062 " fill-opacity="1" fill-rule="nonzero"/></g><path fill="#81a969" d="M 74.890625 133.683594 L 161.488281 133.683594 L 153.558594 76.160156 L 56.601562 76.160156 C 45.972656 76.160156 35.945312 80.679688 29.078125 89.65625 C 22.207031 98.628906 19.742188 110.425781 21.363281 122.15625 L 39.355469 252.828125 C 41.042969 264.601562 46.6875 276.375 56.054688 285.371094 C 65.375 294.367188 76.703125 298.898438 87.339844 298.898438 L 184.351562 298.898438 L 176.378906 241.347656 L 89.753906 241.347656 L 74.890625 133.683594 " fill-opacity="1" fill-rule="nonzero"/><path fill="#bb2424" d="M 92.210938 133.683594 L 178.808594 133.683594 L 170.832031 76.160156 L 73.917969 76.160156 C 63.292969 76.160156 53.265625 80.679688 46.359375 89.65625 C 39.488281 98.628906 37.058594 110.425781 38.679688 122.15625 L 56.679688 252.828125 C 58.335938 264.601562 64.015625 276.375 73.339844 285.371094 C 82.703125 294.367188 94.035156 298.898438 104.632812 298.898438 L 201.675781 298.898438 L 193.664062 241.347656 L 107.078125 241.347656 L 92.210938 133.683594 " fill-opacity="1" fill-rule="nonzero"/><path fill="#211f60" d="M 109.53125 133.683594 L 196.132812 133.683594 L 188.152344 76.160156 L 91.234375 76.160156 C 80.609375 76.160156 70.578125 80.679688 63.679688 89.65625 C 56.808594 98.628906 54.375 110.425781 56 122.15625 L 74.007812 252.828125 C 75.65625 264.601562 81.34375 276.375 90.667969 285.371094 C 99.992188 294.367188 111.359375 298.898438 121.957031 298.898438 L 219.003906 298.898438 L 210.992188 241.347656 L 124.367188 241.347656 L 109.53125 133.683594 " fill-opacity="1" fill-rule="nonzero"/><path fill="#ffffff" d="M 126.851562 133.683594 L 213.449219 133.683594 L 205.472656 76.160156 L 108.554688 76.160156 C 97.925781 76.160156 87.894531 80.679688 80.992188 89.65625 C 74.125 98.628906 71.699219 110.425781 73.320312 122.15625 L 91.332031 252.828125 C 92.984375 264.601562 98.632812 276.375 107.996094 285.371094 C 117.320312 294.367188 128.648438 298.898438 139.28125 298.898438 L 236.332031 298.898438 L 228.316406 241.347656 L 141.691406 241.347656 L 126.851562 133.683594 " fill-opacity="1" fill-rule="nonzero"/><g clip-path="url(#be249d88b9)"><g clip-path="url(#5dd7429fd3)"><path fill="#ffffff" d="M 237.664062 163.582031 L 371.722656 163.582031 L 371.722656 209.285156 L 237.664062 209.285156 Z M 237.664062 163.582031 " fill-opacity="1" fill-rule="nonzero"/></g></g><g clip-path="url(#c4ede549aa)"><g clip-path="url(#14c918ebbc)"><path stroke-linecap="butt" transform="matrix(0.806889, 0, 0, 0.806889, 237.676556, 163.582988)" fill="none" stroke-linejoin="miter" d="M 26.020078 -0.00118629 L 140.076945 -0.00118629 C 154.445399 -0.00118629 166.097983 11.651398 166.097983 26.019852 L 166.097983 30.604396 C 166.097983 44.977691 154.445399 56.625434 140.076945 56.625434 L 26.020078 56.625434 C 11.646783 56.625434 -0.000960284 44.977691 -0.000960284 30.604396 L -0.000960284 26.019852 C -0.000960284 11.651398 11.646783 -0.00118629 26.020078 -0.00118629 Z M 26.020078 -0.00118629 " stroke="#000000" stroke-width="7.435965" stroke-opacity="1" stroke-miterlimit="4"/></g></g><g clip-path="url(#2d9658334a)"><g clip-path="url(#57f2a7698a)"><path fill="#000000" d="M 133.75 171.738281 L 212.832031 171.738281 L 212.832031 201.128906 L 133.75 201.128906 Z M 133.75 171.738281 " fill-opacity="1" fill-rule="nonzero"/></g></g><g clip-path="url(#7b044d9795)"><g clip-path="url(#636e81bbf7)"><path stroke-linecap="butt" transform="matrix(0.806889, 0, 0, 0.806889, 133.751818, 171.739969)" fill="none" stroke-linejoin="miter" d="M 18.210053 -0.00209133 L 79.789142 -0.00209133 C 84.620584 -0.00209133 89.253539 1.919835 92.666531 5.332827 C 96.079523 8.75066 98.001449 13.378774 98.001449 18.210215 C 98.001449 23.041656 96.079523 27.66977 92.666531 31.087603 C 89.253539 34.500595 84.620584 36.422521 79.789142 36.422521 L 18.210053 36.422521 C 13.378612 36.422521 8.750498 34.500595 5.332665 31.087603 C 1.919673 27.66977 -0.00225324 23.041656 -0.00225324 18.210215 C -0.00225324 13.378774 1.919673 8.75066 5.332665 5.332827 C 8.750498 1.919835 13.378612 -0.00209133 18.210053 -0.00209133 Z M 18.210053 -0.00209133 " stroke="#000000" stroke-width="7.435965" stroke-opacity="1" stroke-miterlimit="4"/></g></g><path fill="#ffffff" d="M 273.527344 213.101562 L 273.136719 213.277344 L 274.585938 216.492188 L 273.539062 214.171875 C 273.527344 214.171875 273.511719 214.171875 273.496094 214.171875 C 272.402344 212.425781 270.152344 211.707031 268.214844 212.574219 L 267.515625 212.890625 C 267.515625 212.890625 269.707031 217.742188 269.769531 217.882812 C 269.855469 218.074219 267.839844 213.605469 268.011719 213.988281 C 267.136719 212.046875 264.847656 211.179688 262.898438 212.054688 L 261.898438 212.5 L 265.085938 219.566406 L 258.089844 204.0625 C 257.417969 202.566406 255.652344 201.898438 254.152344 202.574219 C 252.652344 203.246094 251.984375 205.003906 252.65625 206.5 L 261.53125 226.175781 C 253.4375 223.972656 253.457031 225.195312 252.652344 226.539062 C 251.808594 227.949219 252.269531 229.769531 253.683594 230.613281 L 266.210938 238.066406 C 267.773438 239 270.089844 240.886719 276.066406 238.207031 L 279.9375 236.46875 C 284.121094 234.59375 285.976562 229.671875 284.082031 225.472656 L 283.777344 224.800781 L 281.207031 219.101562 L 279.523438 215.371094 C 278.496094 213.09375 275.8125 212.078125 273.527344 213.101562 " fill-opacity="1" fill-rule="nonzero"/><g clip-path="url(#07d14bbc96)"><path fill="#1d1d1b" d="M 254.085938 225.792969 C 253.75 225.941406 253.609375 226.195312 253.394531 226.582031 C 253.339844 226.679688 253.285156 226.777344 253.222656 226.878906 C 252.90625 227.40625 252.816406 228.027344 252.96875 228.625 C 253.117188 229.222656 253.492188 229.726562 254.023438 230.042969 L 266.550781 237.496094 C 266.660156 237.5625 266.769531 237.628906 266.882812 237.699219 C 268.425781 238.652344 270.535156 239.960938 275.792969 237.601562 L 279.664062 235.867188 C 283.503906 234.140625 285.214844 229.601562 283.476562 225.742188 L 278.917969 215.644531 C 278.074219 213.773438 275.914062 212.898438 274.019531 213.617188 L 275.191406 216.21875 C 275.34375 216.550781 275.191406 216.945312 274.859375 217.09375 C 274.523438 217.246094 274.128906 217.097656 273.980469 216.761719 L 273.019531 214.632812 C 272.984375 214.601562 272.957031 214.5625 272.933594 214.523438 C 272.003906 213.039062 270.09375 212.460938 268.488281 213.179688 L 268.394531 213.222656 L 270.378906 217.617188 C 270.53125 217.953125 270.378906 218.34375 270.046875 218.496094 C 269.710938 218.644531 269.316406 218.496094 269.167969 218.164062 L 267.40625 214.261719 C 266.683594 212.65625 264.78125 211.933594 263.171875 212.65625 L 262.777344 212.835938 L 265.691406 219.292969 C 265.839844 219.628906 265.691406 220.019531 265.359375 220.171875 C 265.023438 220.320312 264.628906 220.171875 264.476562 219.839844 L 257.484375 204.335938 C 256.960938 203.175781 255.589844 202.65625 254.425781 203.175781 C 253.261719 203.699219 252.742188 205.066406 253.265625 206.226562 L 262.140625 225.902344 C 262.246094 226.136719 262.207031 226.410156 262.039062 226.605469 C 261.871094 226.800781 261.605469 226.882812 261.355469 226.8125 C 258.019531 225.90625 255.835938 225.523438 254.675781 225.652344 C 254.425781 225.679688 254.234375 225.722656 254.085938 225.792969 Z M 280.210938 237.074219 L 276.339844 238.8125 C 270.4375 241.457031 267.773438 239.8125 266.183594 238.828125 C 266.074219 238.757812 265.96875 238.695312 265.867188 238.632812 L 253.34375 231.179688 C 252.507812 230.683594 251.914062 229.890625 251.675781 228.949219 C 251.4375 228.007812 251.582031 227.03125 252.082031 226.199219 C 252.132812 226.109375 252.183594 226.023438 252.230469 225.9375 C 253.171875 224.253906 254.28125 223.636719 260.355469 225.179688 L 252.050781 206.773438 C 251.226562 204.945312 252.046875 202.789062 253.878906 201.96875 C 255.710938 201.144531 257.875 201.964844 258.699219 203.789062 L 262.230469 211.625 L 262.625 211.449219 C 264.296875 210.699219 266.1875 211.046875 267.480469 212.179688 L 267.941406 211.972656 C 269.644531 211.207031 271.59375 211.507812 272.988281 212.617188 L 273.253906 212.496094 C 275.871094 211.324219 278.953125 212.492188 280.132812 215.097656 L 284.6875 225.199219 C 286.730469 229.726562 284.71875 235.050781 280.210938 237.074219 " fill-opacity="1" fill-rule="nonzero"/></g><g fill="#000000" fill-opacity="1"><g transform="translate(256.007126, 198.651282)"><g><path d="M 11.546875 -7.421875 L 21.578125 -7.421875 C 21.835938 -7.421875 22.0625 -7.320312 22.25 -7.125 C 22.445312 -6.9375 22.546875 -6.707031 22.546875 -6.4375 L 22.546875 -0.984375 C 22.546875 -0.710938 22.445312 -0.476562 22.25 -0.28125 C 22.0625 -0.09375 21.835938 0 21.578125 0 L 3.328125 0 C 3.066406 0 2.835938 -0.09375 2.640625 -0.28125 C 2.453125 -0.476562 2.359375 -0.710938 2.359375 -0.984375 L 2.359375 -24.359375 C 2.359375 -24.628906 2.453125 -24.859375 2.640625 -25.046875 C 2.835938 -25.242188 3.066406 -25.34375 3.328125 -25.34375 L 10.578125 -25.34375 C 10.835938 -25.34375 11.0625 -25.242188 11.25 -25.046875 C 11.445312 -24.859375 11.546875 -24.628906 11.546875 -24.359375 Z M 11.546875 -7.421875 "/></g></g></g><g fill="#000000" fill-opacity="1"><g transform="translate(289.02176, 198.651282)"><g><path d="M 11.046875 -15.71875 L 11.046875 -9.625 C 11.046875 -7.675781 11.9375 -6.703125 13.71875 -6.703125 C 15.09375 -6.703125 16 -7.351562 16.4375 -8.65625 C 16.5625 -9.0625 16.710938 -9.335938 16.890625 -9.484375 C 17.066406 -9.628906 17.363281 -9.703125 17.78125 -9.703125 L 25.15625 -9.703125 C 25.375 -9.703125 25.5625 -9.625 25.71875 -9.46875 C 25.875 -9.3125 25.953125 -9.125 25.953125 -8.90625 C 25.953125 -6.800781 25.347656 -5.039062 24.140625 -3.625 C 21.921875 -0.96875 18.457031 0.359375 13.75 0.359375 C 10.0625 0.359375 7.117188 -0.453125 4.921875 -2.078125 C 2.722656 -3.710938 1.625 -6.21875 1.625 -9.59375 L 1.625 -15.75 C 1.625 -19.050781 2.742188 -21.535156 4.984375 -23.203125 C 7.234375 -24.867188 10.15625 -25.703125 13.75 -25.703125 C 18.457031 -25.703125 21.921875 -24.375 24.140625 -21.71875 C 25.347656 -20.289062 25.953125 -18.53125 25.953125 -16.4375 C 25.953125 -16.21875 25.875 -16.03125 25.71875 -15.875 C 25.5625 -15.71875 25.375 -15.640625 25.15625 -15.640625 L 17.78125 -15.640625 C 17.394531 -15.640625 17.109375 -15.710938 16.921875 -15.859375 C 16.742188 -16.003906 16.582031 -16.28125 16.4375 -16.6875 C 15.976562 -17.988281 15.070312 -18.640625 13.71875 -18.640625 C 11.9375 -18.640625 11.046875 -17.664062 11.046875 -15.71875 Z M 11.046875 -15.71875 "/></g></g></g><g fill="#000000" fill-opacity="1"><g transform="translate(325.619859, 198.651282)"><g><path d="M 25.671875 -1.1875 C 25.742188 -1.050781 25.78125 -0.894531 25.78125 -0.71875 C 25.78125 -0.550781 25.703125 -0.390625 25.546875 -0.234375 C 25.390625 -0.078125 25.203125 0 24.984375 0 L 17.5625 0 C 16.8125 0 16.289062 -0.328125 16 -0.984375 L 12.890625 -7.890625 L 11.40625 -7.890625 L 11.40625 -0.984375 C 11.40625 -0.710938 11.304688 -0.476562 11.109375 -0.28125 C 10.921875 -0.09375 10.691406 0 10.421875 0 L 3.328125 0 C 3.066406 0 2.835938 -0.09375 2.640625 -0.28125 C 2.453125 -0.476562 2.359375 -0.710938 2.359375 -0.984375 L 2.359375 -24.359375 C 2.359375 -24.628906 2.453125 -24.859375 2.640625 -25.046875 C 2.835938 -25.242188 3.066406 -25.34375 3.328125 -25.34375 L 14.046875 -25.34375 C 17.523438 -25.34375 20.238281 -24.5625 22.1875 -23 C 24.144531 -21.445312 25.125 -19.21875 25.125 -16.3125 C 25.125 -13.40625 23.820312 -11.117188 21.21875 -9.453125 Z M 11.40625 -18.609375 L 11.40625 -14.765625 L 14.046875 -14.765625 C 14.578125 -14.765625 14.988281 -14.941406 15.28125 -15.296875 C 15.570312 -15.648438 15.71875 -16.085938 15.71875 -16.609375 C 15.71875 -17.140625 15.578125 -17.601562 15.296875 -18 C 15.015625 -18.40625 14.597656 -18.609375 14.046875 -18.609375 Z M 11.40625 -18.609375 "/></g></g></g></svg>